# MagicaVoxel @ Ephtracy

# group
o 

# material
mtllib sand_asset_basic.mtl
usemtl palette

# normals
vn -1 0 0
vn 1 0 0
vn 0 0 1
vn 0 0 -1
vn 0 -1 0
vn 0 1 0

# texcoords
vt 0.00976563 0.5
vt 0.0136719 0.5
vt 0.0175781 0.5
vt 0.0214844 0.5

# verts
v -6 0 6
v -6 0 -6
v -6 0.7 6
v -6 0.7 -6
v -6 0.8 6
v -6 0.8 -6
v 6 0 6
v 6 0 -6
v 6 0.7 6
v 6 0.7 -6
v 6 0.8 6
v 6 0.8 -6
v -6 0 6
v -6 0.7 6
v -6 0.8 6
v 6 0 6
v 6 0.7 6
v 6 0.8 6
v -6 0 -6
v -6 0.7 -6
v -6 0.8 -6
v 6 0 -6
v 6 0.7 -6
v 6 0.8 -6
v -6 0 6
v 6 0 6
v -4.4 0 5.2
v -2.8 0 5.2
v -2 0 5.2
v 0.4 0 5.2
v 2 0 5.2
v 2.8 0 5.2
v 3.6 0 5.2
v -5.2 0 5.1
v -4.4 0 5.1
v -5.2 0 4.4
v -4.4 0 4.4
v -2 0 4.4
v -1.2 0 4.4
v 0.4 0 4.4
v 1.2 0 4.4
v 2 0 4.4
v 2.8 0 4.4
v 3.6 0 4.4
v 4.4 0 4.4
v 5.2 0 4.4
v -3.6 0 3.6
v -2.8 0 3.6
v -2 0 3.6
v -1.2 0 3.6
v -0.4 0 3.6
v 0.4 0 3.6
v 1.2 0 3.6
v 2 0 3.6
v 2.8 0 3.6
v 3.6 0 3.6
v 4.4 0 3.6
v -4.4 0 2.8
v -3.6 0 2.8
v -2.8 0 2.8
v -2 0 2.8
v -1.2 0 2.8
v -0.4 0 2.8
v 0.4 0 2.8
v 1.2 0 2.8
v 2 0 2.8
v 2.8 0 2.8
v 3.6 0 2.8
v -5.2 0 2
v -4.4 0 2
v -2.8 0 2
v -2 0 2
v -1.2 0 2
v -0.4 0 2
v 0.4 0 2
v 2 0 2
v 3.6 0 2
v 4.4 0 2
v 5.2 0 2
v -4.4 0 1.2
v -3.6 0 1.2
v -2.8 0 1.2
v -2 0 1.2
v -1.2 0 1.2
v -0.4 0 1.2
v 1.2 0 1.2
v 2 0 1.2
v 2.8 0 1.2
v 3.6 0 1.2
v 4.4 0 1.2
v -5.2 0 0.4
v -4.4 0 0.4
v -3.6 0 0.4
v -2.8 0 0.4
v -2 0 0.4
v -1.2 0 0.4
v -0.4 0 0.4
v 0.4 0 0.4
v 2.8 0 0.4
v 3.6 0 0.4
v 4.4 0 0.4
v 5.2 0 0.4
v -5.2 0 -0.4
v -4.4 0 -0.4
v -3.6 0 -0.4
v -2.8 0 -0.4
v -2 0 -0.4
v -1.2 0 -0.4
v -0.4 0 -0.4
v 0.4 0 -0.4
v 1.2 0 -0.4
v 2 0 -0.4
v -5.2 0 -1.2
v -4.4 0 -1.2
v -3.6 0 -1.2
v -2.8 0 -1.2
v -2 0 -1.2
v -1.2 0 -1.2
v -0.4 0 -1.2
v 0.4 0 -1.2
v 1.2 0 -1.2
v 2 0 -1.2
v 2.8 0 -1.2
v 3.6 0 -1.2
v 4.4 0 -1.2
v 5.2 0 -1.2
v -3.6 0 -2
v -2.8 0 -2
v -2 0 -2
v -1.2 0 -2
v -0.4 0 -2
v 0.4 0 -2
v 1.2 0 -2
v 2 0 -2
v 2.8 0 -2
v 3.6 0 -2
v 4.4 0 -2
v 5.2 0 -2
v -5.2 0 -2.8
v -4.4 0 -2.8
v -2.8 0 -2.8
v -2 0 -2.8
v -1.2 0 -2.8
v -0.4 0 -2.8
v 0.4 0 -2.8
v 1.2 0 -2.8
v 2 0 -2.8
v 3.6 0 -2.8
v 4.4 0 -2.8
v 5.2 0 -2.8
v -5.2 0 -3.6
v -4.4 0 -3.6
v -3.6 0 -3.6
v -2.8 0 -3.6
v -2 0 -3.6
v -0.4 0 -3.6
v 0.4 0 -3.6
v 1.2 0 -3.6
v 2.8 0 -3.6
v 3.6 0 -3.6
v 4.4 0 -3.6
v 5.2 0 -3.6
v -5.2 0 -4.4
v -4.4 0 -4.4
v -3.6 0 -4.4
v -2.8 0 -4.4
v -2 0 -4.4
v -1.2 0 -4.4
v -0.4 0 -4.4
v 0.4 0 -4.4
v 1.2 0 -4.4
v 2 0 -4.4
v 2.8 0 -4.4
v 4.4 0 -4.4
v 5.2 0 -4.4
v 4.4 0 -5.1
v 5.2 0 -5.1
v -3.6 0 -5.2
v -2.8 0 -5.2
v -0.4 0 -5.2
v 0.4 0 -5.2
v 2 0 -5.2
v 3.6 0 -5.2
v 4.4 0 -5.2
v -6 0 -6
v 6 0 -6
v -6 0.8 6
v 6 0.8 6
v -5.8 0.8 5.8
v 5.8 0.8 5.8
v -4.4 0.8 5.2
v -2.8 0.8 5.2
v -2 0.8 5.2
v 0.4 0.8 5.2
v 2 0.8 5.2
v 2.8 0.8 5.2
v 3.6 0.8 5.2
v -5.2 0.8 5.1
v -4.4 0.8 5.1
v -5.2 0.8 4.4
v -4.4 0.8 4.4
v -2 0.8 4.4
v -1.2 0.8 4.4
v 0.4 0.8 4.4
v 1.2 0.8 4.4
v 2 0.8 4.4
v 2.8 0.8 4.4
v 3.6 0.8 4.4
v 4.4 0.8 4.4
v 5.2 0.8 4.4
v -3.6 0.8 3.6
v -2.8 0.8 3.6
v -2 0.8 3.6
v -1.2 0.8 3.6
v -0.4 0.8 3.6
v 0.4 0.8 3.6
v 1.2 0.8 3.6
v 2 0.8 3.6
v 2.8 0.8 3.6
v 3.6 0.8 3.6
v 4.4 0.8 3.6
v -4.4 0.8 2.8
v -3.6 0.8 2.8
v -2.8 0.8 2.8
v -2 0.8 2.8
v -1.2 0.8 2.8
v -0.4 0.8 2.8
v 0.4 0.8 2.8
v 1.2 0.8 2.8
v 2 0.8 2.8
v 2.8 0.8 2.8
v 3.6 0.8 2.8
v -5.2 0.8 2
v -4.4 0.8 2
v -2.8 0.8 2
v -2 0.8 2
v -1.2 0.8 2
v -0.4 0.8 2
v 0.4 0.8 2
v 2 0.8 2
v 3.6 0.8 2
v 4.4 0.8 2
v 5.2 0.8 2
v -4.4 0.8 1.2
v -3.6 0.8 1.2
v -2.8 0.8 1.2
v -2 0.8 1.2
v -1.2 0.8 1.2
v -0.4 0.8 1.2
v 1.2 0.8 1.2
v 2 0.8 1.2
v 2.8 0.8 1.2
v 3.6 0.8 1.2
v 4.4 0.8 1.2
v -5.2 0.8 0.4
v -4.4 0.8 0.4
v -3.6 0.8 0.4
v -2.8 0.8 0.4
v -2 0.8 0.4
v -1.2 0.8 0.4
v -0.4 0.8 0.4
v 0.4 0.8 0.4
v 2.8 0.8 0.4
v 3.6 0.8 0.4
v 4.4 0.8 0.4
v 5.2 0.8 0.4
v -5.2 0.8 -0.4
v -4.4 0.8 -0.4
v -3.6 0.8 -0.4
v -2.8 0.8 -0.4
v -2 0.8 -0.4
v -1.2 0.8 -0.4
v -0.4 0.8 -0.4
v 0.4 0.8 -0.4
v 1.2 0.8 -0.4
v 2 0.8 -0.4
v -5.2 0.8 -1.2
v -4.4 0.8 -1.2
v -3.6 0.8 -1.2
v -2.8 0.8 -1.2
v -2 0.8 -1.2
v -1.2 0.8 -1.2
v -0.4 0.8 -1.2
v 0.4 0.8 -1.2
v 1.2 0.8 -1.2
v 2 0.8 -1.2
v 2.8 0.8 -1.2
v 3.6 0.8 -1.2
v 4.4 0.8 -1.2
v 5.2 0.8 -1.2
v -3.6 0.8 -2
v -2.8 0.8 -2
v -2 0.8 -2
v -1.2 0.8 -2
v -0.4 0.8 -2
v 0.4 0.8 -2
v 1.2 0.8 -2
v 2 0.8 -2
v 2.8 0.8 -2
v 3.6 0.8 -2
v 4.4 0.8 -2
v 5.2 0.8 -2
v -5.2 0.8 -2.8
v -4.4 0.8 -2.8
v -2.8 0.8 -2.8
v -2 0.8 -2.8
v -1.2 0.8 -2.8
v -0.4 0.8 -2.8
v 0.4 0.8 -2.8
v 1.2 0.8 -2.8
v 2 0.8 -2.8
v 3.6 0.8 -2.8
v 4.4 0.8 -2.8
v 5.2 0.8 -2.8
v -5.2 0.8 -3.6
v -4.4 0.8 -3.6
v -3.6 0.8 -3.6
v -2.8 0.8 -3.6
v -2 0.8 -3.6
v -0.4 0.8 -3.6
v 0.4 0.8 -3.6
v 1.2 0.8 -3.6
v 2.8 0.8 -3.6
v 3.6 0.8 -3.6
v 4.4 0.8 -3.6
v 5.2 0.8 -3.6
v -5.2 0.8 -4.4
v -4.4 0.8 -4.4
v -3.6 0.8 -4.4
v -2.8 0.8 -4.4
v -2 0.8 -4.4
v -1.2 0.8 -4.4
v -0.4 0.8 -4.4
v 0.4 0.8 -4.4
v 1.2 0.8 -4.4
v 2 0.8 -4.4
v 2.8 0.8 -4.4
v 4.4 0.8 -4.4
v 5.2 0.8 -4.4
v 4.4 0.8 -5.1
v 5.2 0.8 -5.1
v -3.6 0.8 -5.2
v -2.8 0.8 -5.2
v -0.4 0.8 -5.2
v 0.4 0.8 -5.2
v 2 0.8 -5.2
v 3.6 0.8 -5.2
v 4.4 0.8 -5.2
v -5.8 0.8 -5.8
v 5.8 0.8 -5.8
v -6 0.8 -6
v 6 0.8 -6

# faces
f 3/2/1 2/2/1 1/2/1
f 4/2/1 2/2/1 3/2/1
f 5/4/1 4/4/1 3/4/1
f 6/4/1 4/4/1 5/4/1
f 7/2/2 8/2/2 9/2/2
f 9/2/2 8/2/2 10/2/2
f 9/4/2 10/4/2 11/4/2
f 11/4/2 10/4/2 12/4/2
f 16/2/3 14/2/3 13/2/3
f 17/4/3 15/4/3 14/4/3
f 17/2/3 14/2/3 16/2/3
f 18/4/3 15/4/3 17/4/3
f 19/2/4 20/2/4 22/2/4
f 20/4/4 21/4/4 23/4/4
f 22/2/4 20/2/4 23/2/4
f 23/4/4 21/4/4 24/4/4
f 27/2/5 26/2/5 25/2/5
f 28/2/5 26/2/5 27/2/5
f 29/2/5 26/2/5 28/2/5
f 30/2/5 26/2/5 29/2/5
f 31/2/5 26/2/5 30/2/5
f 32/2/5 26/2/5 31/2/5
f 33/2/5 26/2/5 32/2/5
f 34/2/5 27/2/5 25/2/5
f 35/1/5 28/1/5 27/1/5
f 35/2/5 27/2/5 34/2/5
f 36/2/5 34/2/5 25/2/5
f 36/3/5 35/3/5 34/3/5
f 37/1/5 28/1/5 35/1/5
f 37/3/5 35/3/5 36/3/5
f 38/2/5 29/2/5 28/2/5
f 38/1/5 30/1/5 29/1/5
f 39/1/5 30/1/5 38/1/5
f 40/3/5 31/3/5 30/3/5
f 40/1/5 30/1/5 39/1/5
f 41/3/5 31/3/5 40/3/5
f 42/2/5 32/2/5 31/2/5
f 42/3/5 31/3/5 41/3/5
f 43/3/5 33/3/5 32/3/5
f 43/2/5 32/2/5 42/2/5
f 44/2/5 26/2/5 33/2/5
f 44/3/5 33/3/5 43/3/5
f 45/2/5 26/2/5 44/2/5
f 46/2/5 26/2/5 45/2/5
f 47/1/5 28/1/5 37/1/5
f 47/1/5 37/1/5 36/1/5
f 48/2/5 38/2/5 28/2/5
f 48/1/5 28/1/5 47/1/5
f 49/3/5 39/3/5 38/3/5
f 49/2/5 38/2/5 48/2/5
f 50/2/5 40/2/5 39/2/5
f 50/3/5 39/3/5 49/3/5
f 51/2/5 40/2/5 50/2/5
f 52/3/5 41/3/5 40/3/5
f 52/2/5 40/2/5 51/2/5
f 53/2/5 42/2/5 41/2/5
f 53/3/5 41/3/5 52/3/5
f 54/1/5 43/1/5 42/1/5
f 54/2/5 42/2/5 53/2/5
f 55/2/5 44/2/5 43/2/5
f 55/1/5 43/1/5 54/1/5
f 55/2/5 45/2/5 44/2/5
f 56/2/5 45/2/5 55/2/5
f 57/3/5 46/3/5 45/3/5
f 57/2/5 45/2/5 56/2/5
f 58/1/5 47/1/5 36/1/5
f 59/2/5 48/2/5 47/2/5
f 59/1/5 47/1/5 58/1/5
f 59/2/5 49/2/5 48/2/5
f 60/2/5 49/2/5 59/2/5
f 61/1/5 50/1/5 49/1/5
f 61/2/5 49/2/5 60/2/5
f 62/3/5 51/3/5 50/3/5
f 62/1/5 50/1/5 61/1/5
f 63/2/5 52/2/5 51/2/5
f 63/3/5 51/3/5 62/3/5
f 64/1/5 53/1/5 52/1/5
f 64/2/5 52/2/5 63/2/5
f 65/2/5 54/2/5 53/2/5
f 65/1/5 53/1/5 64/1/5
f 66/3/5 55/3/5 54/3/5
f 66/2/5 54/2/5 65/2/5
f 67/2/5 56/2/5 55/2/5
f 67/3/5 55/3/5 66/3/5
f 68/3/5 57/3/5 56/3/5
f 68/2/5 56/2/5 67/2/5
f 69/2/5 36/2/5 25/2/5
f 69/1/5 58/1/5 36/1/5
f 70/3/5 60/3/5 59/3/5
f 70/1/5 58/1/5 69/1/5
f 70/3/5 59/3/5 58/3/5
f 71/1/5 61/1/5 60/1/5
f 71/3/5 60/3/5 70/3/5
f 71/1/5 62/1/5 61/1/5
f 72/1/5 62/1/5 71/1/5
f 73/2/5 63/2/5 62/2/5
f 73/1/5 62/1/5 72/1/5
f 74/3/5 64/3/5 63/3/5
f 74/2/5 63/2/5 73/2/5
f 75/1/5 66/1/5 65/1/5
f 75/3/5 64/3/5 74/3/5
f 75/1/5 68/1/5 67/1/5
f 75/1/5 65/1/5 64/1/5
f 75/1/5 67/1/5 66/1/5
f 76/1/5 68/1/5 75/1/5
f 77/3/5 57/3/5 68/3/5
f 77/1/5 68/1/5 76/1/5
f 78/3/5 46/3/5 57/3/5
f 78/3/5 57/3/5 77/3/5
f 79/2/5 26/2/5 46/2/5
f 79/3/5 46/3/5 78/3/5
f 80/2/5 72/2/5 71/2/5
f 80/2/5 71/2/5 70/2/5
f 80/2/5 70/2/5 69/2/5
f 81/2/5 72/2/5 80/2/5
f 82/2/5 72/2/5 81/2/5
f 83/3/5 73/3/5 72/3/5
f 83/2/5 72/2/5 82/2/5
f 84/2/5 74/2/5 73/2/5
f 84/3/5 73/3/5 83/3/5
f 85/1/5 76/1/5 75/1/5
f 85/2/5 74/2/5 84/2/5
f 85/1/5 75/1/5 74/1/5
f 86/1/5 76/1/5 85/1/5
f 87/2/5 77/2/5 76/2/5
f 87/1/5 76/1/5 86/1/5
f 88/2/5 77/2/5 87/2/5
f 89/3/5 78/3/5 77/3/5
f 89/2/5 77/2/5 88/2/5
f 90/2/5 79/2/5 78/2/5
f 90/3/5 78/3/5 89/3/5
f 91/2/5 69/2/5 25/2/5
f 91/2/5 80/2/5 69/2/5
f 92/1/5 81/1/5 80/1/5
f 92/2/5 80/2/5 91/2/5
f 93/3/5 82/3/5 81/3/5
f 93/1/5 81/1/5 92/1/5
f 94/1/5 83/1/5 82/1/5
f 94/3/5 82/3/5 93/3/5
f 95/3/5 84/3/5 83/3/5
f 95/1/5 83/1/5 94/1/5
f 96/1/5 86/1/5 85/1/5
f 96/3/5 84/3/5 95/3/5
f 96/1/5 85/1/5 84/1/5
f 97/1/5 86/1/5 96/1/5
f 98/1/5 86/1/5 97/1/5
f 99/2/5 88/2/5 87/2/5
f 99/1/5 89/1/5 88/1/5
f 100/2/5 90/2/5 89/2/5
f 100/1/5 89/1/5 99/1/5
f 101/2/5 79/2/5 90/2/5
f 101/2/5 90/2/5 100/2/5
f 102/2/5 26/2/5 79/2/5
f 102/2/5 79/2/5 101/2/5
f 103/3/5 93/3/5 92/3/5
f 103/2/5 91/2/5 25/2/5
f 103/3/5 92/3/5 91/3/5
f 104/3/5 93/3/5 103/3/5
f 105/1/5 94/1/5 93/1/5
f 105/3/5 93/3/5 104/3/5
f 106/3/5 95/3/5 94/3/5
f 106/1/5 94/1/5 105/1/5
f 107/2/5 96/2/5 95/2/5
f 107/3/5 95/3/5 106/3/5
f 108/3/5 97/3/5 96/3/5
f 108/2/5 96/2/5 107/2/5
f 109/2/5 98/2/5 97/2/5
f 109/3/5 97/3/5 108/3/5
f 110/1/5 86/1/5 98/1/5
f 110/2/5 98/2/5 109/2/5
f 111/3/5 87/3/5 86/3/5
f 111/1/5 86/1/5 110/1/5
f 112/2/5 100/2/5 99/2/5
f 112/3/5 87/3/5 111/3/5
f 112/2/5 99/2/5 87/2/5
f 113/2/5 104/2/5 103/2/5
f 113/2/5 103/2/5 25/2/5
f 114/3/5 105/3/5 104/3/5
f 114/2/5 104/2/5 113/2/5
f 115/2/5 106/2/5 105/2/5
f 115/3/5 105/3/5 114/3/5
f 116/3/5 108/3/5 107/3/5
f 116/2/5 106/2/5 115/2/5
f 116/3/5 107/3/5 106/3/5
f 117/3/5 108/3/5 116/3/5
f 118/1/5 109/1/5 108/1/5
f 118/3/5 108/3/5 117/3/5
f 119/2/5 110/2/5 109/2/5
f 119/1/5 109/1/5 118/1/5
f 120/3/5 111/3/5 110/3/5
f 120/2/5 110/2/5 119/2/5
f 121/1/5 112/1/5 111/1/5
f 121/3/5 111/3/5 120/3/5
f 122/2/5 100/2/5 112/2/5
f 122/1/5 112/1/5 121/1/5
f 123/2/5 100/2/5 122/2/5
f 124/3/5 101/3/5 100/3/5
f 124/2/5 100/2/5 123/2/5
f 125/1/5 102/1/5 101/1/5
f 125/3/5 101/3/5 124/3/5
f 126/2/5 26/2/5 102/2/5
f 126/1/5 102/1/5 125/1/5
f 127/3/5 117/3/5 116/3/5
f 127/1/5 115/1/5 114/1/5
f 127/3/5 116/3/5 115/3/5
f 128/3/5 117/3/5 127/3/5
f 129/2/5 118/2/5 117/2/5
f 129/3/5 117/3/5 128/3/5
f 130/1/5 119/1/5 118/1/5
f 130/2/5 118/2/5 129/2/5
f 130/1/5 120/1/5 119/1/5
f 131/1/5 120/1/5 130/1/5
f 132/3/5 121/3/5 120/3/5
f 132/1/5 120/1/5 131/1/5
f 132/3/5 122/3/5 121/3/5
f 133/3/5 122/3/5 132/3/5
f 134/1/5 123/1/5 122/1/5
f 134/3/5 122/3/5 133/3/5
f 135/3/5 124/3/5 123/3/5
f 135/1/5 123/1/5 134/1/5
f 136/1/5 125/1/5 124/1/5
f 136/3/5 124/3/5 135/3/5
f 137/2/5 126/2/5 125/2/5
f 137/1/5 125/1/5 136/1/5
f 138/2/5 26/2/5 126/2/5
f 138/2/5 126/2/5 137/2/5
f 139/2/5 113/2/5 25/2/5
f 139/3/5 114/3/5 113/3/5
f 140/1/5 127/1/5 114/1/5
f 140/3/5 114/3/5 139/3/5
f 141/1/5 129/1/5 128/1/5
f 141/2/5 128/2/5 127/2/5
f 141/1/5 130/1/5 129/1/5
f 142/1/5 130/1/5 141/1/5
f 143/2/5 131/2/5 130/2/5
f 143/1/5 130/1/5 142/1/5
f 144/1/5 133/1/5 132/1/5
f 144/2/5 131/2/5 143/2/5
f 144/1/5 132/1/5 131/1/5
f 145/1/5 133/1/5 144/1/5
f 146/2/5 134/2/5 133/2/5
f 146/1/5 133/1/5 145/1/5
f 147/1/5 135/1/5 134/1/5
f 147/2/5 134/2/5 146/2/5
f 147/1/5 136/1/5 135/1/5
f 148/3/5 137/3/5 136/3/5
f 148/1/5 136/1/5 147/1/5
f 149/1/5 138/1/5 137/1/5
f 149/3/5 137/3/5 148/3/5
f 150/2/5 26/2/5 138/2/5
f 150/1/5 138/1/5 149/1/5
f 151/2/5 139/2/5 25/2/5
f 151/2/5 140/2/5 139/2/5
f 152/1/5 127/1/5 140/1/5
f 152/2/5 140/2/5 151/2/5
f 153/2/5 142/2/5 141/2/5
f 153/1/5 127/1/5 152/1/5
f 153/2/5 141/2/5 127/2/5
f 154/2/5 142/2/5 153/2/5
f 155/1/5 143/1/5 142/1/5
f 155/2/5 142/2/5 154/2/5
f 156/3/5 144/3/5 143/3/5
f 156/3/5 145/3/5 144/3/5
f 157/2/5 146/2/5 145/2/5
f 157/3/5 145/3/5 156/3/5
f 158/1/5 147/1/5 146/1/5
f 158/2/5 146/2/5 157/2/5
f 158/1/5 149/1/5 148/1/5
f 158/1/5 148/1/5 147/1/5
f 159/1/5 149/1/5 158/1/5
f 160/1/5 149/1/5 159/1/5
f 161/2/5 150/2/5 149/2/5
f 161/1/5 149/1/5 160/1/5
f 162/2/5 26/2/5 150/2/5
f 162/2/5 150/2/5 161/2/5
f 163/3/5 152/3/5 151/3/5
f 163/2/5 151/2/5 25/2/5
f 164/1/5 154/1/5 153/1/5
f 164/3/5 152/3/5 163/3/5
f 164/1/5 153/1/5 152/1/5
f 165/1/5 154/1/5 164/1/5
f 166/3/5 155/3/5 154/3/5
f 166/1/5 154/1/5 165/1/5
f 167/1/5 143/1/5 155/1/5
f 167/3/5 155/3/5 166/3/5
f 168/3/5 156/3/5 143/3/5
f 168/1/5 143/1/5 167/1/5
f 169/1/5 157/1/5 156/1/5
f 169/3/5 156/3/5 168/3/5
f 170/3/5 158/3/5 157/3/5
f 170/1/5 157/1/5 169/1/5
f 171/1/5 159/1/5 158/1/5
f 171/3/5 158/3/5 170/3/5
f 172/1/5 159/1/5 171/1/5
f 173/2/5 160/2/5 159/2/5
f 173/1/5 159/1/5 172/1/5
f 174/1/5 162/1/5 161/1/5
f 174/1/5 161/1/5 160/1/5
f 175/2/5 26/2/5 162/2/5
f 175/1/5 162/1/5 174/1/5
f 176/1/5 174/1/5 160/1/5
f 176/3/5 175/3/5 174/3/5
f 177/2/5 26/2/5 175/2/5
f 177/3/5 175/3/5 176/3/5
f 178/3/5 166/3/5 165/3/5
f 178/2/5 165/2/5 164/2/5
f 178/2/5 164/2/5 163/2/5
f 179/1/5 168/1/5 167/1/5
f 179/3/5 166/3/5 178/3/5
f 179/1/5 167/1/5 166/1/5
f 179/1/5 169/1/5 168/1/5
f 180/3/5 170/3/5 169/3/5
f 180/1/5 169/1/5 179/1/5
f 181/1/5 171/1/5 170/1/5
f 181/3/5 170/3/5 180/3/5
f 181/1/5 172/1/5 171/1/5
f 182/2/5 173/2/5 172/2/5
f 182/1/5 172/1/5 181/1/5
f 183/1/5 176/1/5 160/1/5
f 183/2/5 173/2/5 182/2/5
f 183/2/5 160/2/5 173/2/5
f 184/2/5 177/2/5 176/2/5
f 184/1/5 176/1/5 183/1/5
f 185/2/5 163/2/5 25/2/5
f 185/2/5 182/2/5 181/2/5
f 185/2/5 184/2/5 183/2/5
f 185/2/5 179/2/5 178/2/5
f 185/2/5 181/2/5 180/2/5
f 185/2/5 183/2/5 182/2/5
f 185/2/5 178/2/5 163/2/5
f 185/2/5 180/2/5 179/2/5
f 186/2/5 177/2/5 184/2/5
f 186/2/5 184/2/5 185/2/5
f 186/2/5 26/2/5 177/2/5
f 187/4/6 188/4/6 189/4/6
f 189/4/6 188/4/6 190/4/6
f 189/2/6 190/2/6 191/2/6
f 191/2/6 190/2/6 192/2/6
f 192/2/6 190/2/6 193/2/6
f 193/2/6 190/2/6 194/2/6
f 194/2/6 190/2/6 195/2/6
f 195/2/6 190/2/6 196/2/6
f 196/2/6 190/2/6 197/2/6
f 189/2/6 191/2/6 198/2/6
f 191/1/6 192/1/6 199/1/6
f 198/2/6 191/2/6 199/2/6
f 189/2/6 198/2/6 200/2/6
f 198/3/6 199/3/6 200/3/6
f 199/1/6 192/1/6 201/1/6
f 200/3/6 199/3/6 201/3/6
f 192/2/6 193/2/6 202/2/6
f 193/1/6 194/1/6 202/1/6
f 202/1/6 194/1/6 203/1/6
f 194/3/6 195/3/6 204/3/6
f 203/1/6 194/1/6 204/1/6
f 204/3/6 195/3/6 205/3/6
f 195/2/6 196/2/6 206/2/6
f 205/3/6 195/3/6 206/3/6
f 196/3/6 197/3/6 207/3/6
f 206/2/6 196/2/6 207/2/6
f 197/2/6 190/2/6 208/2/6
f 207/3/6 197/3/6 208/3/6
f 208/2/6 190/2/6 209/2/6
f 209/2/6 190/2/6 210/2/6
f 201/1/6 192/1/6 211/1/6
f 200/1/6 201/1/6 211/1/6
f 192/2/6 202/2/6 212/2/6
f 211/1/6 192/1/6 212/1/6
f 202/3/6 203/3/6 213/3/6
f 212/2/6 202/2/6 213/2/6
f 203/2/6 204/2/6 214/2/6
f 213/3/6 203/3/6 214/3/6
f 214/2/6 204/2/6 215/2/6
f 204/3/6 205/3/6 216/3/6
f 215/2/6 204/2/6 216/2/6
f 205/2/6 206/2/6 217/2/6
f 216/3/6 205/3/6 217/3/6
f 206/1/6 207/1/6 218/1/6
f 217/2/6 206/2/6 218/2/6
f 207/2/6 208/2/6 219/2/6
f 218/1/6 207/1/6 219/1/6
f 208/2/6 209/2/6 219/2/6
f 219/2/6 209/2/6 220/2/6
f 209/3/6 210/3/6 221/3/6
f 220/2/6 209/2/6 221/2/6
f 200/1/6 211/1/6 222/1/6
f 211/2/6 212/2/6 223/2/6
f 222/1/6 211/1/6 223/1/6
f 212/2/6 213/2/6 223/2/6
f 223/2/6 213/2/6 224/2/6
f 213/1/6 214/1/6 225/1/6
f 224/2/6 213/2/6 225/2/6
f 214/3/6 215/3/6 226/3/6
f 225/1/6 214/1/6 226/1/6
f 215/2/6 216/2/6 227/2/6
f 226/3/6 215/3/6 227/3/6
f 216/1/6 217/1/6 228/1/6
f 227/2/6 216/2/6 228/2/6
f 217/2/6 218/2/6 229/2/6
f 228/1/6 217/1/6 229/1/6
f 218/3/6 219/3/6 230/3/6
f 229/2/6 218/2/6 230/2/6
f 219/2/6 220/2/6 231/2/6
f 230/3/6 219/3/6 231/3/6
f 220/3/6 221/3/6 232/3/6
f 231/2/6 220/2/6 232/2/6
f 189/2/6 200/2/6 233/2/6
f 200/1/6 222/1/6 233/1/6
f 223/3/6 224/3/6 234/3/6
f 233/1/6 222/1/6 234/1/6
f 222/3/6 223/3/6 234/3/6
f 224/1/6 225/1/6 235/1/6
f 234/3/6 224/3/6 235/3/6
f 225/1/6 226/1/6 235/1/6
f 235/1/6 226/1/6 236/1/6
f 226/2/6 227/2/6 237/2/6
f 236/1/6 226/1/6 237/1/6
f 227/3/6 228/3/6 238/3/6
f 237/2/6 227/2/6 238/2/6
f 229/1/6 230/1/6 239/1/6
f 238/3/6 228/3/6 239/3/6
f 231/1/6 232/1/6 239/1/6
f 228/1/6 229/1/6 239/1/6
f 230/1/6 231/1/6 239/1/6
f 239/1/6 232/1/6 240/1/6
f 232/3/6 221/3/6 241/3/6
f 240/1/6 232/1/6 241/1/6
f 221/3/6 210/3/6 242/3/6
f 241/3/6 221/3/6 242/3/6
f 210/2/6 190/2/6 243/2/6
f 242/3/6 210/3/6 243/3/6
f 235/2/6 236/2/6 244/2/6
f 234/2/6 235/2/6 244/2/6
f 233/2/6 234/2/6 244/2/6
f 244/2/6 236/2/6 245/2/6
f 245/2/6 236/2/6 246/2/6
f 236/3/6 237/3/6 247/3/6
f 246/2/6 236/2/6 247/2/6
f 237/2/6 238/2/6 248/2/6
f 247/3/6 237/3/6 248/3/6
f 239/1/6 240/1/6 249/1/6
f 248/2/6 238/2/6 249/2/6
f 238/1/6 239/1/6 249/1/6
f 249/1/6 240/1/6 250/1/6
f 240/2/6 241/2/6 251/2/6
f 250/1/6 240/1/6 251/1/6
f 251/2/6 241/2/6 252/2/6
f 241/3/6 242/3/6 253/3/6
f 252/2/6 241/2/6 253/2/6
f 242/2/6 243/2/6 254/2/6
f 253/3/6 242/3/6 254/3/6
f 189/2/6 233/2/6 255/2/6
f 233/2/6 244/2/6 255/2/6
f 244/1/6 245/1/6 256/1/6
f 255/2/6 244/2/6 256/2/6
f 245/3/6 246/3/6 257/3/6
f 256/1/6 245/1/6 257/1/6
f 246/1/6 247/1/6 258/1/6
f 257/3/6 246/3/6 258/3/6
f 247/3/6 248/3/6 259/3/6
f 258/1/6 247/1/6 259/1/6
f 249/1/6 250/1/6 260/1/6
f 259/3/6 248/3/6 260/3/6
f 248/1/6 249/1/6 260/1/6
f 260/1/6 250/1/6 261/1/6
f 261/1/6 250/1/6 262/1/6
f 251/2/6 252/2/6 263/2/6
f 252/1/6 253/1/6 263/1/6
f 253/2/6 254/2/6 264/2/6
f 263/1/6 253/1/6 264/1/6
f 254/2/6 243/2/6 265/2/6
f 264/2/6 254/2/6 265/2/6
f 243/2/6 190/2/6 266/2/6
f 265/2/6 243/2/6 266/2/6
f 256/3/6 257/3/6 267/3/6
f 189/2/6 255/2/6 267/2/6
f 255/3/6 256/3/6 267/3/6
f 267/3/6 257/3/6 268/3/6
f 257/1/6 258/1/6 269/1/6
f 268/3/6 257/3/6 269/3/6
f 258/3/6 259/3/6 270/3/6
f 269/1/6 258/1/6 270/1/6
f 259/2/6 260/2/6 271/2/6
f 270/3/6 259/3/6 271/3/6
f 260/3/6 261/3/6 272/3/6
f 271/2/6 260/2/6 272/2/6
f 261/2/6 262/2/6 273/2/6
f 272/3/6 261/3/6 273/3/6
f 262/1/6 250/1/6 274/1/6
f 273/2/6 262/2/6 274/2/6
f 250/3/6 251/3/6 275/3/6
f 274/1/6 250/1/6 275/1/6
f 263/2/6 264/2/6 276/2/6
f 275/3/6 251/3/6 276/3/6
f 251/2/6 263/2/6 276/2/6
f 267/2/6 268/2/6 277/2/6
f 189/2/6 267/2/6 277/2/6
f 268/3/6 269/3/6 278/3/6
f 277/2/6 268/2/6 278/2/6
f 269/2/6 270/2/6 279/2/6
f 278/3/6 269/3/6 279/3/6
f 271/3/6 272/3/6 280/3/6
f 279/2/6 270/2/6 280/2/6
f 270/3/6 271/3/6 280/3/6
f 280/3/6 272/3/6 281/3/6
f 272/1/6 273/1/6 282/1/6
f 281/3/6 272/3/6 282/3/6
f 273/2/6 274/2/6 283/2/6
f 282/1/6 273/1/6 283/1/6
f 274/3/6 275/3/6 284/3/6
f 283/2/6 274/2/6 284/2/6
f 275/1/6 276/1/6 285/1/6
f 284/3/6 275/3/6 285/3/6
f 276/2/6 264/2/6 286/2/6
f 285/1/6 276/1/6 286/1/6
f 286/2/6 264/2/6 287/2/6
f 264/3/6 265/3/6 288/3/6
f 287/2/6 264/2/6 288/2/6
f 265/1/6 266/1/6 289/1/6
f 288/3/6 265/3/6 289/3/6
f 266/2/6 190/2/6 290/2/6
f 289/1/6 266/1/6 290/1/6
f 280/3/6 281/3/6 291/3/6
f 278/1/6 279/1/6 291/1/6
f 279/3/6 280/3/6 291/3/6
f 291/3/6 281/3/6 292/3/6
f 281/2/6 282/2/6 293/2/6
f 292/3/6 281/3/6 293/3/6
f 282/1/6 283/1/6 294/1/6
f 293/2/6 282/2/6 294/2/6
f 283/1/6 284/1/6 294/1/6
f 294/1/6 284/1/6 295/1/6
f 284/3/6 285/3/6 296/3/6
f 295/1/6 284/1/6 296/1/6
f 285/3/6 286/3/6 296/3/6
f 296/3/6 286/3/6 297/3/6
f 286/1/6 287/1/6 298/1/6
f 297/3/6 286/3/6 298/3/6
f 287/3/6 288/3/6 299/3/6
f 298/1/6 287/1/6 299/1/6
f 288/1/6 289/1/6 300/1/6
f 299/3/6 288/3/6 300/3/6
f 289/2/6 290/2/6 301/2/6
f 300/1/6 289/1/6 301/1/6
f 290/2/6 190/2/6 302/2/6
f 301/2/6 290/2/6 302/2/6
f 189/2/6 277/2/6 303/2/6
f 277/3/6 278/3/6 303/3/6
f 278/1/6 291/1/6 304/1/6
f 303/3/6 278/3/6 304/3/6
f 292/1/6 293/1/6 305/1/6
f 291/2/6 292/2/6 305/2/6
f 293/1/6 294/1/6 305/1/6
f 305/1/6 294/1/6 306/1/6
f 294/2/6 295/2/6 307/2/6
f 306/1/6 294/1/6 307/1/6
f 296/1/6 297/1/6 308/1/6
f 307/2/6 295/2/6 308/2/6
f 295/1/6 296/1/6 308/1/6
f 308/1/6 297/1/6 309/1/6
f 297/2/6 298/2/6 310/2/6
f 309/1/6 297/1/6 310/1/6
f 298/1/6 299/1/6 311/1/6
f 310/2/6 298/2/6 311/2/6
f 299/1/6 300/1/6 311/1/6
f 300/3/6 301/3/6 312/3/6
f 311/1/6 300/1/6 312/1/6
f 301/1/6 302/1/6 313/1/6
f 312/3/6 301/3/6 313/3/6
f 302/2/6 190/2/6 314/2/6
f 313/1/6 302/1/6 314/1/6
f 189/2/6 303/2/6 315/2/6
f 303/2/6 304/2/6 315/2/6
f 304/1/6 291/1/6 316/1/6
f 315/2/6 304/2/6 316/2/6
f 305/2/6 306/2/6 317/2/6
f 316/1/6 291/1/6 317/1/6
f 291/2/6 305/2/6 317/2/6
f 317/2/6 306/2/6 318/2/6
f 306/1/6 307/1/6 319/1/6
f 318/2/6 306/2/6 319/2/6
f 307/3/6 308/3/6 320/3/6
f 308/3/6 309/3/6 320/3/6
f 309/2/6 310/2/6 321/2/6
f 320/3/6 309/3/6 321/3/6
f 310/1/6 311/1/6 322/1/6
f 321/2/6 310/2/6 322/2/6
f 312/1/6 313/1/6 322/1/6
f 311/1/6 312/1/6 322/1/6
f 322/1/6 313/1/6 323/1/6
f 323/1/6 313/1/6 324/1/6
f 313/2/6 314/2/6 325/2/6
f 324/1/6 313/1/6 325/1/6
f 314/2/6 190/2/6 326/2/6
f 325/2/6 314/2/6 326/2/6
f 315/3/6 316/3/6 327/3/6
f 189/2/6 315/2/6 327/2/6
f 317/1/6 318/1/6 328/1/6
f 327/3/6 316/3/6 328/3/6
f 316/1/6 317/1/6 328/1/6
f 328/1/6 318/1/6 329/1/6
f 318/3/6 319/3/6 330/3/6
f 329/1/6 318/1/6 330/1/6
f 319/1/6 307/1/6 331/1/6
f 330/3/6 319/3/6 331/3/6
f 307/3/6 320/3/6 332/3/6
f 331/1/6 307/1/6 332/1/6
f 320/1/6 321/1/6 333/1/6
f 332/3/6 320/3/6 333/3/6
f 321/3/6 322/3/6 334/3/6
f 333/1/6 321/1/6 334/1/6
f 322/1/6 323/1/6 335/1/6
f 334/3/6 322/3/6 335/3/6
f 335/1/6 323/1/6 336/1/6
f 323/2/6 324/2/6 337/2/6
f 336/1/6 323/1/6 337/1/6
f 325/1/6 326/1/6 338/1/6
f 324/1/6 325/1/6 338/1/6
f 326/2/6 190/2/6 339/2/6
f 338/1/6 326/1/6 339/1/6
f 324/1/6 338/1/6 340/1/6
f 338/3/6 339/3/6 340/3/6
f 339/2/6 190/2/6 341/2/6
f 340/3/6 339/3/6 341/3/6
f 329/3/6 330/3/6 342/3/6
f 328/2/6 329/2/6 342/2/6
f 327/2/6 328/2/6 342/2/6
f 331/1/6 332/1/6 343/1/6
f 342/3/6 330/3/6 343/3/6
f 330/1/6 331/1/6 343/1/6
f 332/1/6 333/1/6 343/1/6
f 333/3/6 334/3/6 344/3/6
f 343/1/6 333/1/6 344/1/6
f 334/1/6 335/1/6 345/1/6
f 344/3/6 334/3/6 345/3/6
f 335/1/6 336/1/6 345/1/6
f 336/2/6 337/2/6 346/2/6
f 345/1/6 336/1/6 346/1/6
f 324/1/6 340/1/6 347/1/6
f 346/2/6 337/2/6 347/2/6
f 337/2/6 324/2/6 347/2/6
f 340/2/6 341/2/6 348/2/6
f 347/1/6 340/1/6 348/1/6
f 187/4/6 189/4/6 349/4/6
f 189/2/6 327/2/6 349/2/6
f 347/2/6 348/2/6 349/2/6
f 342/2/6 343/2/6 349/2/6
f 344/2/6 345/2/6 349/2/6
f 346/2/6 347/2/6 349/2/6
f 345/2/6 346/2/6 349/2/6
f 343/2/6 344/2/6 349/2/6
f 327/2/6 342/2/6 349/2/6
f 348/2/6 341/2/6 350/2/6
f 349/2/6 348/2/6 350/2/6
f 190/4/6 188/4/6 350/4/6
f 341/2/6 190/2/6 350/2/6
f 187/4/6 349/4/6 351/4/6
f 349/4/6 350/4/6 351/4/6
f 350/4/6 188/4/6 352/4/6
f 351/4/6 350/4/6 352/4/6
